<svg width="89" height="91" viewBox="0 0 89 91" fill="none" xmlns="http://www.w3.org/2000/svg">
<path fill-rule="evenodd" clip-rule="evenodd" d="M55.8689 3.07266C54.6365 1.41725 52.2944 1.07543 50.6373 2.30911L2.42232 38.2041C0.764652 39.4382 0.420199 41.7814 1.65303 43.4374L18.4364 65.9813C18.5719 66.1633 18.7119 66.3401 18.8559 66.5116L21.4814 60.3854L28.8813 57.6104L29.8063 45.5857L34.5317 60.3854L24.2564 64.0853L23.6151 69.8568C27.1037 71.1414 31.1534 70.6926 34.36 68.3053L70.313 41.5392C75.3564 37.7844 76.4043 30.6563 72.6534 25.618L55.8689 3.07266Z"/>
<path d="M37.7577 74.9479C56.0797 92.7094 87.1123 76.8665 85.6 51.2281C85.503 49.5841 83.8704 49.1802 82.2277 49.36C69.6083 51.9527 52.9164 60.3367 38.3368 71.3149C37.0944 72.1688 36.6395 73.8639 37.7577 74.9479Z" />
</svg>
