<svg width="303" height="159" viewBox="0 0 303 159" fill="none" xmlns="http://www.w3.org/2000/svg">
<path d="M164.521 104.56C162.502 110.915 159.906 115.884 156.733 119.466C153.618 123.048 150.446 124.839 147.215 124.839C141.446 124.839 138.562 119.639 138.562 109.24C138.562 104.907 139.081 100.66 140.12 96.5005C141.216 92.3407 142.427 88.7586 143.754 85.7543C144.792 83.3278 146.638 82.1145 149.292 82.1145C152.292 82.1145 153.791 83.4434 153.791 86.101C153.791 86.3899 153.445 87.5165 152.753 89.4808C149.638 97.916 148.08 104.387 148.08 108.893C148.08 111.031 148.253 112.793 148.6 114.18C149.003 115.508 149.638 116.173 150.503 116.173C152.061 116.173 153.791 114.411 155.695 110.886C157.656 107.304 159.445 103.058 161.06 98.1471C162.733 93.1784 163.915 88.8453 164.608 85.1477C164.723 84.3966 165.271 83.7322 166.252 83.1545C167.29 82.5767 168.184 82.2879 168.934 82.2879C170.434 82.2879 171.501 82.6345 172.136 83.3278C172.77 83.9633 173.088 85.0033 173.088 86.4476C173.088 86.7365 172.915 87.632 172.569 89.1342C171.703 93.7562 171.011 97.6849 170.492 100.92C170.03 104.098 169.8 107.073 169.8 109.846C169.8 111.695 170.088 113.226 170.665 114.44C171.299 115.595 172.078 116.173 173.001 116.173C175.655 116.173 178.078 112.88 180.27 106.293C182.52 99.707 184.337 92.6007 185.721 84.9744C185.952 83.4722 187.221 82.7212 189.529 82.7212C190.798 82.7212 192.038 82.9523 193.249 83.4145C194.461 83.8189 195.095 84.2811 195.153 84.8011L194.201 89.2208C192.586 96.7894 191.057 102.885 189.615 107.507C188.173 112.129 186.01 116.173 183.125 119.639C180.241 123.106 176.491 124.839 171.876 124.839C166.742 124.839 164.175 120.737 164.175 112.533C164.175 109.991 164.406 107.333 164.867 104.56H164.521Z" fill="#FF5A1D"/>
<path d="M230.829 118.773C230.945 120.275 231.147 121.633 231.435 122.846C231.32 123.192 230.801 123.539 229.878 123.886C229.012 124.232 228.262 124.406 227.628 124.406C225.551 124.406 224.051 124.088 223.128 123.452C222.263 122.875 221.83 121.979 221.83 120.766C221.83 119.61 221.946 118.455 222.176 117.299C220.907 119.033 219.032 120.477 216.552 121.633C214.129 122.73 212.168 123.279 210.668 123.279C206.803 123.279 203.572 122.153 200.976 119.899C198.438 117.646 197.169 114.035 197.169 109.067C197.169 104.387 198.265 99.9959 200.457 95.8938C202.707 91.7341 205.793 88.412 209.716 85.9277C213.639 83.3856 217.994 82.1145 222.782 82.1145C223.705 82.1145 224.917 82.3745 226.416 82.8945C227.916 83.3567 229.416 84.1944 230.916 85.4077C232.474 86.5632 233.772 88.0653 234.81 89.9141C235.271 89.9141 235.819 90.1452 236.454 90.6074C237.089 91.0696 237.406 91.5318 237.406 91.994C237.406 92.514 237.319 93.034 237.146 93.554L230.829 118.773ZM226.936 94.5072C226.589 93.2362 225.897 92.1674 224.859 91.3007C223.878 90.4341 222.984 90.0008 222.176 90.0008C219.523 90.0008 217.013 90.9541 214.648 92.8607C212.341 94.7095 210.466 97.0205 209.024 99.7937C207.582 102.567 206.861 105.196 206.861 107.68C206.861 110.106 207.149 112.1 207.726 113.66C208.303 115.22 209.428 116 211.101 116C212.543 116 214.187 115.566 216.033 114.7C217.936 113.833 219.609 112.677 221.052 111.233C222.551 109.731 223.532 108.171 223.994 106.553L226.936 94.5072Z" fill="#FF5A1D"/>
<path d="M250.897 110.973C250.724 111.666 250.638 112.36 250.638 113.053C250.638 114.266 250.955 115.248 251.589 116C252.224 116.751 253.233 117.126 254.618 117.126C256.406 117.126 258.339 116.606 260.416 115.566C262.492 114.526 264.252 113.255 265.694 111.753L267.338 104.907C268.434 100.285 269.703 95.2872 271.145 89.9141C271.78 87.6031 272.587 85.7255 273.568 84.2811C274.607 82.7789 276.222 82.0279 278.414 82.0279C281.471 82.0279 283 82.9523 283 84.8011C283 85.0899 282.913 85.4655 282.74 85.9277C282.625 86.3321 282.538 86.6787 282.481 86.9676C280.462 95.5183 279.337 100.285 279.106 101.267C276.395 113.4 274.347 121.835 272.962 126.572C270.943 133.563 268.059 138.532 264.309 141.478C260.56 144.425 255.339 145.898 248.647 145.898C244.609 145.898 241.898 145.291 240.513 144.078C239.129 142.923 238.437 141.478 238.437 139.745C238.437 138.705 238.841 137.81 239.648 137.058C240.513 136.307 241.465 135.932 242.504 135.932C243.369 135.932 244.032 136.019 244.494 136.192C245.013 136.423 245.561 136.741 246.138 137.145C246.83 137.665 247.522 138.041 248.215 138.272C248.907 138.561 249.916 138.705 251.243 138.705C252.224 138.705 253.407 138.301 254.791 137.492C256.176 136.683 257.502 135.383 258.771 133.592C260.098 131.859 261.137 129.721 261.887 127.179L264.05 119.639C262.088 121.488 260.185 122.846 258.339 123.712C256.493 124.637 254.416 125.099 252.109 125.099C248.301 125.099 245.359 123.915 243.282 121.546C241.263 119.177 240.254 116.028 240.254 112.1C240.254 110.944 240.427 109.673 240.773 108.287L246.311 86.2743C246.311 86.2743 247.369 83.2874 248.136 82.5197C248.911 81.7433 249.686 80.9669 250.984 81.0746C254.676 81.0746 256.695 82.8367 257.041 86.361L250.897 110.973Z" fill="#FF5A1D"/>
<path d="M165.379 13.3963C167.593 12.9854 169.459 13.0571 170.978 13.6116C172.495 14.1661 173.323 14.9628 173.459 16.0017C173.06 16.9881 171.667 19.7169 169.282 24.1884L166.003 30.1559C160.785 40.2459 145.404 63.9362 142.375 69.2873C139.398 74.5525 137.068 78.1776 135.384 80.1624C135.057 80.5273 134.558 80.962 133.886 81.4667C133.801 84.2951 131.979 104.176 130.982 113.027L130.388 118.154C130.142 120.404 129.638 121.98 128.878 122.881C128.176 123.772 126.66 124.433 124.329 124.866C122.581 125.19 121.301 125.048 120.487 124.439C119.674 123.829 119.195 122.55 119.051 120.6C118.989 119.776 119.018 118.972 119.137 118.19L122.578 85.5036C122.667 85.107 122.736 84.448 122.786 83.5266C121.762 83.2605 121.076 82.7796 120.729 82.0838C120.435 81.3024 120.16 79.9852 119.904 78.1321C119.132 72.4984 118.509 68.091 118.037 64.91C117.9 63.8711 114.762 38.7998 114.028 33.691C113.289 28.5071 112.744 23.5532 112.393 18.8293C112.31 17.7045 112.852 16.6537 114.02 15.6768C115.241 14.6142 116.812 13.9043 118.735 13.5475C120.483 13.2231 121.796 13.3976 122.673 14.0711C123.544 14.6694 124.041 15.7935 124.164 17.4431L127.96 64.7532L128.486 71.8391C135.098 62.0037 146.475 39.5475 153.163 29.6691C162.113 15.0749 163.689 13.7099 165.379 13.3963Z" fill="#FF5A1D"/>
<path fill-rule="evenodd" clip-rule="evenodd" d="M71.1565 44.5297C69.9241 42.8743 67.582 42.5325 65.9249 43.7661L17.7099 79.6611C16.0522 80.8952 15.7078 83.2384 16.9406 84.8944L33.724 107.438C33.8595 107.62 33.9995 107.797 34.1435 107.969L36.769 101.842L44.1689 99.0674L45.0939 87.0427L49.8193 101.842L39.544 105.542L38.9027 111.314C42.3913 112.598 46.441 112.15 49.6476 109.762L85.6006 82.9962C90.644 79.2415 91.6919 72.1133 87.941 67.075L71.1565 44.5297Z" fill="#FF5A1D"/>
<path d="M53.0453 116.405C71.3673 134.166 102.4 118.324 100.888 92.6851C100.791 91.0411 99.158 90.6373 97.5153 90.817C84.8959 93.4097 68.204 101.794 53.6244 112.772C52.382 113.626 51.9271 115.321 53.0453 116.405Z" fill="#FF5A1D"/>
</svg>
